<svg width="69" height="68" viewBox="0 0 69 68" fill="none" xmlns="http://www.w3.org/2000/svg">
<path d="M45.7389 22.9739L41.1875 19.9531L44.2218 24.4843L47.0875 32.1464L45.7389 22.9739Z" fill="black"/>
<path d="M25.6323 6.52064C30.6435 5.91408 35.7206 5.84199 40.7491 6.28079C44.8133 6.64195 48.8499 7.3414 52.7693 8.4533C56.6783 9.5652 60.4812 11.0875 63.9611 13.1595C64.1413 16.846 63.6824 20.5428 62.8492 24.1385C61.2153 31.0643 58.2082 37.647 54.3387 43.6613C50.9053 48.9546 46.7557 53.8417 41.8339 57.8921C39.581 59.734 37.1631 61.3977 34.5712 62.7619C34.4804 62.8243 34.3882 62.7307 34.3085 62.7002C31.1731 61.0212 28.2824 58.9291 25.6392 56.5854C20.7923 52.2751 16.7329 47.1675 13.4201 41.6641C10.318 36.4734 7.8675 30.8952 6.37572 25.0632C5.40523 21.1771 4.83888 17.1641 5.0406 13.1616C7.81759 11.457 10.8233 10.1225 13.9275 9.09313C17.72 7.83357 21.6588 7.00796 25.6323 6.52064ZM22.8623 8.48033C23.0557 8.56352 23.2588 8.62314 23.4605 8.68483C26.7941 9.71424 30.1243 10.7485 33.4593 11.7772C33.6409 11.8389 33.8246 11.902 34.0173 11.9325C34.0146 10.4782 34.0146 9.0245 34.0173 7.57085C30.2803 7.53965 26.5494 7.90913 22.8623 8.48033ZM34.9802 7.58956C35.0017 8.99123 34.9816 10.395 34.9913 11.7973C35.001 11.8355 35.0211 11.9089 35.0308 11.9464C38.6487 10.8074 42.2741 9.6983 45.8975 8.57738C45.9072 8.55728 45.9259 8.51777 45.9356 8.49766C45.3374 8.43666 44.7482 8.31397 44.1513 8.23979C41.2239 7.82248 38.2688 7.60412 35.3129 7.55906C35.1993 7.55768 35.0883 7.56877 34.9802 7.58956ZM20.47 9.06194C18.2926 11.5921 16.109 14.121 13.9303 16.6498C13.7424 16.8758 13.5324 17.0858 13.3674 17.3291C15.7382 18.6185 18.0611 19.9931 20.436 21.2721C24.605 18.5256 28.7802 15.7881 32.9491 13.0423C33.0884 12.9494 33.2444 12.8718 33.3512 12.7387C29.2106 11.4667 25.0757 10.1773 20.9372 8.90111C20.7625 8.84773 20.574 8.91636 20.47 9.06194ZM47.8073 8.98152C43.8741 10.1988 39.9436 11.4168 36.0103 12.6313C35.8841 12.6756 35.7393 12.6923 35.6422 12.79C39.9027 15.6079 44.1437 18.4584 48.4014 21.2804C48.434 21.2887 48.5005 21.3054 48.5317 21.313C50.908 20 53.258 18.6427 55.6343 17.3284C54.9494 16.4682 54.1994 15.6543 53.4881 14.8128C51.8605 12.921 50.228 11.0348 48.6031 9.14165C48.4215 8.90804 48.07 8.89764 47.8073 8.98152ZM7.58606 13.5082C7.42385 13.6004 7.24638 13.6725 7.10913 13.8035C8.90869 14.801 10.6958 15.8186 12.4912 16.8231C14.602 14.4003 16.6858 11.9561 18.7911 9.52846C18.8534 9.45221 18.9131 9.3718 18.9657 9.28861C15.0165 10.2348 11.1457 11.5769 7.58606 13.5082ZM50.0977 9.36764C50.1573 9.45013 50.2169 9.53193 50.2821 9.60888C52.3617 12.0115 54.4288 14.4239 56.5098 16.8259C58.2983 15.8207 60.0868 14.8149 61.8725 13.8035C61.381 13.4749 60.8271 13.2441 60.3031 12.9695C57.0637 11.3835 53.6157 10.2217 50.0977 9.36764ZM33.8669 13.5941C29.5489 16.4266 25.24 19.2722 20.9192 22.1005C20.5885 27.409 20.2274 32.7176 19.8863 38.0255C24.7076 40.3186 29.5274 42.6131 34.3598 44.8834C39.2594 42.6263 44.1472 40.3422 49.0509 38.0941C49.044 37.1735 48.9359 36.2564 48.8901 35.3365C48.5865 30.9458 48.3036 26.5557 47.991 22.1663C43.5025 19.173 39.0036 16.1902 34.5234 13.1851C34.2912 13.2988 34.0825 13.4513 33.8669 13.5941ZM6.59338 14.6332C6.59477 18.7717 7.3573 22.8775 8.52535 26.8462C8.62795 26.765 8.63626 26.625 8.68895 26.5141C9.7759 23.5936 10.8809 20.6794 11.9671 17.7582C11.9657 17.7263 11.9616 17.6626 11.9602 17.63C10.284 16.6761 8.59536 15.7396 6.9185 14.7871C6.81452 14.731 6.7036 14.6818 6.59338 14.6332ZM61.5328 15.1005C60.0258 15.9399 58.5326 16.8044 57.0186 17.6321C57.0283 17.6785 57.0471 17.7714 57.0568 17.8185C58.1707 20.8305 59.334 23.8265 60.4237 26.8462C60.5034 26.7547 60.5346 26.6382 60.5672 26.5245C61.6735 22.662 62.4312 18.6663 62.3841 14.6443C62.0825 14.7643 61.8163 14.9473 61.5328 15.1005ZM12.6617 18.6961C11.4625 21.898 10.2598 25.0986 9.05773 28.3005C8.99396 28.4683 9.10002 28.6464 9.23242 28.7518C11.2919 30.5597 13.3473 32.3724 15.4047 34.181C16.5922 35.2111 17.7499 36.2772 18.9588 37.2831C19.2825 32.3183 19.6063 27.3529 19.9335 22.3881C19.9307 22.2724 19.9875 22.1074 19.8357 22.0561C17.5246 20.7536 15.2065 19.4614 12.9023 18.1492C12.774 18.3093 12.7407 18.5145 12.6617 18.6961ZM48.9809 22.1622C49.3102 27.2115 49.6582 32.2594 50.002 37.3073C50.036 37.2893 50.106 37.2519 50.1399 37.2339C53.346 34.409 56.5521 31.5863 59.761 28.7636C59.9183 28.6381 60.0209 28.4267 59.9204 28.236C58.6629 24.8761 57.3964 21.5189 56.1431 18.1568C53.7356 19.4573 51.3787 20.8464 48.9809 22.1622ZM9.80363 30.5541C11.0521 33.9598 12.686 37.2235 14.4987 40.3782C14.7164 40.3055 14.9119 40.1828 15.1136 40.0753C16.2525 39.4514 17.4095 38.8567 18.5373 38.2161C15.6162 35.6748 12.7283 33.0926 9.80363 30.5541ZM57.5067 32.0341C55.1525 34.1144 52.7845 36.1788 50.438 38.266C51.7835 38.9814 53.1242 39.7051 54.4877 40.3886C56.3386 37.2352 57.9254 33.937 59.2279 30.5354C58.6373 31.0158 58.0834 31.5378 57.5067 32.0341ZM15.0235 41.2205C16.7995 44.1694 18.8264 46.9762 21.0578 49.6166C21.159 49.7428 21.2651 49.8662 21.3934 49.9681C20.6294 46.326 19.8163 42.6929 19.0413 39.0521C17.6999 39.7696 16.3593 40.4905 15.0235 41.2205ZM49.9313 39.1034C49.139 42.7442 48.3556 46.3863 47.5917 50.0325C49.9653 47.2743 52.1045 44.3254 53.981 41.226C52.6327 40.5162 51.2893 39.7932 49.9313 39.1034ZM20.0776 39.1977C20.9241 43.2107 21.812 47.2167 22.673 51.2276C22.7084 51.4924 22.8747 51.7656 23.1402 51.8584C26.7442 52.4879 30.3565 53.0785 33.9577 53.7204C34.0187 53.5367 33.9889 53.3433 33.9945 53.1554C33.9917 50.6973 33.9959 48.2385 33.9917 45.7804C29.3521 43.5906 24.727 41.3674 20.0776 39.1977ZM34.9622 45.673C34.9719 48.346 34.9663 51.0204 34.965 53.6934C35.0301 53.685 35.1584 53.6705 35.2221 53.6629C38.7533 53.0625 42.2852 52.4581 45.8164 51.8543C46.0764 51.8002 46.2684 51.5569 46.3107 51.308C47.1675 47.277 48.0492 43.2495 48.8956 39.2157C44.2491 41.3654 39.5997 43.506 34.9622 45.673ZM24.1731 52.9939C24.7228 53.5991 25.3363 54.1467 25.9276 54.7124C28.3947 56.9771 31.0657 59.0518 34 60.7176C33.9855 58.7059 34 56.6943 33.9917 54.6833C30.7205 54.1107 27.443 53.5714 24.1731 52.9939ZM40.894 53.6885C38.9225 54.0192 36.9538 54.3769 34.9788 54.686C34.9518 56.7019 34.9705 58.7191 34.9705 60.7356C35.3656 60.5388 35.7344 60.2941 36.1115 60.066C39.0861 58.2172 41.8007 55.9907 44.2893 53.5589C44.4557 53.3994 44.629 53.2476 44.7551 53.0535C43.4623 53.2178 42.1826 53.4833 40.894 53.6885Z" fill="black"/>
<path d="M23.0938 36.4731V26.2464L24.6671 35.2931L33.7137 41.9797L23.0938 36.4731Z" fill="black"/>
</svg>
