<svg width="69" height="68" viewBox="0 0 69 68" fill="none" xmlns="http://www.w3.org/2000/svg">
<path d="M19.9991 9.99999C13.5991 16.4 13.3325 31.3333 13.9991 38C14.1984 42.4 16.0827 50.1667 17 53.5C23 64.7 37.1667 63.5 43.5 61.5C47.1667 60.6667 54.8 54.8 56 38C57.5 17 52 12.5 49 9.00001C46.2008 5.73432 27.9991 1.99999 19.9991 9.99999Z" stroke="black" stroke-width="1.7"/>
<path d="M20.8711 9.5L35.0005 18.5L49.0005 9.5" stroke="black"/>
<path d="M48.5005 58.4881L35.3164 49.5058L21.0004 57.9941" stroke="black"/>
<path d="M35 18.5L25 23L23.5 33.5L25 45L35 49.5L45 45L46.5 33.5L45 22.5L35 18.5Z" stroke="black"/>
<path d="M53 15L46.5 33.5L52.5 52" stroke="black"/>
<path d="M17 15L23.5 33.5L17.5 52.5" stroke="black"/>
<path d="M42 26L35 22.5L41 27.5L43 38L42 26Z" fill="black"/>
</svg>
