<svg width="69" height="68" viewBox="0 0 69 68" fill="none" xmlns="http://www.w3.org/2000/svg">
<path d="M40.1111 22.9426L34.8281 19.4362L38.3501 24.6958L43.0461 34.046L40.1111 22.9426Z" fill="black"/>
<path d="M47.6113 33.1331H56.7425" stroke="black"/>
<path d="M12.9141 33.1331H22.0452" stroke="black"/>
<path d="M25.6965 20.3491L19.3047 13.0443" stroke="black"/>
<path d="M26 46L18 54" stroke="black"/>
<path d="M35.7422 52.3087L44.5 60.5" stroke="black"/>
<path d="M34.8274 52.3087L24.5 60" stroke="black"/>
<path d="M43.959 45.9169L51.2639 54.1349" stroke="black"/>
<path d="M43.959 21.2624L51.2639 13.0444" stroke="black"/>
<path d="M25.6973 5.73935L34.8284 14.8705L43.9595 5.73935" stroke="black"/>
<path d="M25.5314 20.9088L33.6664 14.8705L43.5446 20.9088L47.6121 33.5893L43.5446 46.2697L35.5 52.5L25.5314 46.2697L22.0449 33.5893L25.5314 20.9088Z" stroke="black"/>
<path d="M34.8281 3.84961C40.8023 3.84972 46.2771 7.09315 50.2881 12.4678C54.2991 17.8426 56.8056 25.3072 56.8057 33.5889C56.8057 41.8707 54.2992 49.3361 50.2881 54.7109C46.2771 60.0855 40.8023 63.328 34.8281 63.3281C28.8538 63.3281 23.3782 60.0857 19.3672 54.7109C15.3561 49.3361 12.8496 41.8707 12.8496 33.5889C12.8497 25.3072 15.3562 17.8426 19.3672 12.4678C23.3782 7.093 28.8538 3.84961 34.8281 3.84961Z" stroke="black" stroke-width="1.7"/>
</svg>
