<svg width="69" height="68" viewBox="0 0 69 68" fill="none" xmlns="http://www.w3.org/2000/svg">
<path d="M66.2663 22.0275L48.5517 37.2114L44.334 59.9873" stroke="black"/>
<path d="M3.84375 21.1839L22.4019 36.3678L26.6196 60.8308" stroke="black"/>
<path d="M13.123 6L34.2118 16.1226L57.8313 6" stroke="black"/>
<path d="M40.1172 51.5518L44.3349 59.9873" stroke="black"/>
<path d="M31.6804 51.5518L26.6191 60.8309" stroke="black"/>
<path d="M55.3008 22.871L67.1105 21.1839" stroke="black"/>
<path d="M52.7695 16.9662L57.8308 6.8436" stroke="black"/>
<path d="M12.2793 6L18.1842 16.9662" stroke="black"/>
<path d="M14.8097 22.871L3 21.1839" stroke="black"/>
<path d="M11.4355 6L3 21.1839L26.6194 60.8308H44.334L67.1099 21.1839L57.8308 6H11.4355Z" stroke="black" stroke-width="1.7"/>
<path d="M18.1828 16.9662L14.8086 22.871L31.6796 51.5518H40.1151L56.1426 22.871L53.612 16.9662H18.1828Z" stroke="black"/>
<path d="M45.6504 32.1838L45 30L44 33L37.2148 48.2113L45.6504 32.1838Z" fill="black"/>
<path d="M21.5605 22.0275H31.6832L23.5 23L30.8396 41.4291L21.5605 22.0275Z" fill="black"/>
</svg>
