<svg width="63" height="62" viewBox="0 0 63 62" fill="none" xmlns="http://www.w3.org/2000/svg">
<path d="M24.6055 42.3087L17.7207 30.5062L26.0808 40.3416L31.4903 45.2593L24.6055 42.3087Z" fill="black"/>
<path d="M1 48.21V13.2943L15.4046 1H46.6146L61.9796 13.2943V48.21L46.6146 60.996H15.4046L1 48.21Z" stroke="black" stroke-width="1.7"/>
<path d="M30.9982 10.8354L20.1998 14.7051L12.8027 30.5062L20.1998 45.6625L30.9982 50.1771L43.2925 45.6625L50.6691 30.5062L41.7967 14.7051L30.9982 10.8354Z" stroke="black"/>
<path d="M1.98438 13.786L12.3116 30.5062L1.98438 47.7182" stroke="black"/>
<path d="M15.7539 61.4878L31.4906 50.6688L46.7355 60.0125" stroke="black"/>
<path d="M61.4869 13.2943L50.668 30.5063L61.4869 48.21" stroke="black"/>
<path d="M14.7695 1.49176L31.4897 10.8354L47.2264 1.49176" stroke="black"/>
<path d="M38.8661 18.212L32.9648 16.2449L37.3908 20.6708L44.2756 26.5721L38.8661 18.212Z" fill="black"/>
</svg>
