<svg width="69" height="68" viewBox="0 0 69 68" fill="none" xmlns="http://www.w3.org/2000/svg">
<path d="M14.5 53V14.5L24 3.5H45.5L56 14.5V53L45.5 63.5H24L14.5 53Z" stroke="black" stroke-width="1.7"/>
<path d="M27.5 15.5L23.5 34.5L27.5 52.5L35 54.5L42 52.5L46.5 33.5L42.5 15.5L35 13L27.5 15.5Z" stroke="black"/>
<path d="M24 4L35 13L46 4" stroke="black"/>
<path d="M45.875 63.2948L35 55L23.883 62.7019" stroke="black"/>
<path d="M55.5 14.5L46.5 32.5L55.5 53.5" stroke="black"/>
<path d="M15 14.5L23.5 33L15 53" stroke="black"/>
<path d="M39 20C37.5 19.5 34.4 18.4 34 18L38 22L42 30.5L39 20Z" fill="black"/>
</svg>
