<svg width="69" height="68" viewBox="0 0 69 68" fill="none" xmlns="http://www.w3.org/2000/svg">
<path d="M19.0371 3.25H50.9629C51.0466 3.25 51.087 3.25026 51.125 3.25586C51.156 3.26045 51.192 3.27026 51.251 3.2959C51.3668 3.36467 51.4652 3.42448 51.5449 3.48828C51.6275 3.55444 51.669 3.60868 51.6865 3.65527L51.6924 3.67383L51.7021 3.69043C51.7327 3.7447 51.7405 3.77252 51.7441 3.79199C51.749 3.81801 51.75 3.84688 51.75 3.92285V64.2725C51.75 64.3485 51.749 64.3773 51.7441 64.4033C51.7408 64.4213 51.7331 64.4458 51.708 64.4922C51.5418 64.7132 51.4321 64.8426 51.29 64.8848L51.2744 64.8887L51.2598 64.8955C51.1955 64.9241 51.1575 64.9337 51.125 64.9385C51.087 64.9441 51.0466 64.9453 50.9629 64.9453H19.0371C18.9534 64.9453 18.913 64.9441 18.875 64.9385C18.8442 64.9339 18.8085 64.9248 18.75 64.8994C18.5514 64.7797 18.4222 64.6631 18.29 64.4893C18.2663 64.4448 18.2592 64.4209 18.2559 64.4033C18.251 64.3773 18.25 64.3485 18.25 64.2725V3.92285C18.25 3.84688 18.251 3.81801 18.2559 3.79199C18.2592 3.77434 18.266 3.74989 18.29 3.70508C18.4223 3.53123 18.552 3.41477 18.751 3.29492C18.8088 3.26995 18.8444 3.2604 18.875 3.25586C18.913 3.25026 18.9534 3.25 19.0371 3.25ZM25.6553 59.3281L21.2656 63.2334L20.7744 63.6699H49.2256L48.7344 63.2334L44.3447 59.3281L44.2734 59.2656H25.7266L25.6553 59.3281ZM49.8389 5.86621L45.4492 9.77148L45.3652 9.8457V58.3496L45.4492 58.4238L49.8389 62.3291L50.2549 62.6992V5.49609L49.8389 5.86621ZM26.21 57.9902H43.8701V10.2764H26.21V57.9902ZM21.2656 5.0332L25.6553 8.9375L25.7266 9.00098H44.2734L44.3447 8.9375L48.7344 5.0332L49.2256 4.5957H20.7744L21.2656 5.0332ZM24.7148 9.8457L24.6309 9.77148L20.2412 5.86621L19.8252 5.49609V62.6992L20.2412 62.3291L24.6309 58.4238L24.7148 58.3496V9.8457Z" fill="black" stroke="white" stroke-width="0.5"/>
<path d="M41.2204 12.9512H32.9277L39.1472 15.0244L41.2204 36.1707V12.9512Z" fill="black" stroke="white" stroke-width="0.5"/>
<path d="M29.6094 54.4146V42.3903L30.8533 53.1707L35.8289 54.4146H29.6094Z" fill="black"/>
<path d="M19 64.5V4H51V64.5H19Z" stroke="black" stroke-width="1.3"/>
</svg>
