<svg width="69" height="68" viewBox="0 0 69 68" fill="none" xmlns="http://www.w3.org/2000/svg">
<circle cx="35" cy="34" r="29.15" stroke="black" stroke-width="1.7"/>
<path d="M27.5 18.5L18.5 28V41L28 51H42.5L52 41.5V28L42.5 18L27.5 18.5Z" stroke="black"/>
<path d="M27.5 18.5L22.5 8" stroke="black"/>
<path d="M42.2368 18.6087L47.002 8" stroke="black"/>
<path d="M51.9997 27.9957L62.6973 23.4337" stroke="black"/>
<path d="M51.9997 41.4445L62 45.5" stroke="black"/>
<path d="M42.1158 51L46.4551 60.8805" stroke="black"/>
<path d="M28.2238 50.913L24.1172 60.8925" stroke="black"/>
<path d="M18.8293 41L8.5 45.5" stroke="black"/>
<path d="M18.5 28L8.5 23.5" stroke="black"/>
<path d="M44.5 26L35.5 22L43.5 27L48 34L44.5 26Z" fill="black"/>
<path d="M22 39.5V33L23 39L28.5 46L22 39.5Z" fill="black"/>
</svg>
