<svg width="69" height="68" viewBox="0 0 69 68" fill="none" xmlns="http://www.w3.org/2000/svg">
<path d="M34.5768 64C23.5768 54.6667 8.17681 29.6 34.5768 4C45.7437 14.3333 61.3773 40.8 34.5768 64Z" stroke="black" stroke-width="1.7"/>
<path d="M30 21.5L35 17.5L39.5 21.5L42.5 35L39.5 48L35 52L29.5 47.5L27 34.5L30 21.5Z" stroke="black"/>
<path d="M35 18L35 5" stroke="black"/>
<path d="M40 23L43 14" stroke="black"/>
<path d="M48 25L42.5 34.5" stroke="black"/>
<path d="M42.5 34.5L48 43.5" stroke="black"/>
<path d="M40 46L42.5 55" stroke="black"/>
<path d="M29.7109 47L27.131 55.9774" stroke="black"/>
<path d="M27 34.5L21.5 44.5" stroke="black"/>
<path d="M35 51.5L34.5 64" stroke="black"/>
<path d="M27 34L21.5 24.5" stroke="black"/>
<path d="M30 22L26.5 13" stroke="black"/>
<path d="M32 23.5L34.5 21.5L30 31.5L32 23.5Z" fill="black"/>
</svg>
