<svg width="69" height="68" viewBox="0 0 69 68" fill="none" xmlns="http://www.w3.org/2000/svg">
<path d="M5.25272 28.267C7.25272 42.667 25.4194 58.267 34.2527 64.267C50.7525 52.267 72.7529 28.267 61.7529 12.767C52.9529 0.367025 40.252 3.93364 34.752 7.26697C19.252 -2.23303 2.75272 10.267 5.25272 28.267Z" stroke="black" stroke-width="1.7"/>
<path d="M18.752 30.767L34.252 48.767L50.752 29.767L48.252 20.767L40.252 16.767L34.752 20.767L28.252 16.767L20.252 21.267L18.752 30.767Z" stroke="black"/>
<path d="M18.752 30.267H6.25195" stroke="black"/>
<path d="M62.752 29.767H50.752" stroke="black"/>
<path d="M25.752 39.267L15.252 46.767" stroke="black"/>
<path d="M34.252 48.767L24.752 57.267" stroke="black"/>
<path d="M33.7514 48.0624L43.5999 56.156" stroke="black"/>
<path d="M43.252 38.767L53.5991 47.156" stroke="black"/>
<path d="M48.252 21.267L59.252 10.767" stroke="black"/>
<path d="M9.75195 10.767L20.252 21.267" stroke="black"/>
<path d="M40.252 16.767L49.252 4.26697" stroke="black"/>
<path d="M19.752 4.76697L28.252 16.767" stroke="black"/>
<path d="M34.752 20.267V7.26697" stroke="black"/>
<path d="M23.752 29.267V25.767L30.752 38.767L23.752 29.267Z" fill="black"/>
<path d="M45.252 23.267L40.752 21.767L44.252 24.267L46.752 29.267L45.252 23.267Z" fill="black"/>
</svg>
