<svg width="69" height="68" viewBox="0 0 69 68" fill="none" xmlns="http://www.w3.org/2000/svg">
<path d="M8 50.6696V17.8L18.2414 7.46957L51.2931 7L62 17.8V50.6696L51.2931 61H18.2414L8 50.6696Z" stroke="black" stroke-width="1.7"/>
<path d="M20 43.4522V25.8L25.5 20.2522L43.25 20L49 25.8V43.4522L43.25 49H25.5L20 43.4522Z" stroke="black"/>
<path d="M26 20L18 8" stroke="black"/>
<path d="M20 26C19.6308 25.2471 11.8462 20.3529 8 18" stroke="black"/>
<path d="M20 44L8 51" stroke="black"/>
<path d="M25 49L18 61" stroke="black"/>
<path d="M44 49L51 60" stroke="black"/>
<path d="M49 44L61 51" stroke="black"/>
<path d="M49 26C49 25.6235 57.8214 20.3529 62 18" stroke="black"/>
<path d="M51 7L44 20" stroke="black"/>
<path d="M33.5217 25.1155C33.2745 25.0854 33.0951 25.0474 33 25L33.5217 25.1155C35.2714 25.3283 40.4163 25.1397 43.08 25L45 36L41.64 26.913L33.5217 25.1155Z" fill="black"/>
</svg>
