<svg width="69" height="68" viewBox="0 0 69 68" fill="none" xmlns="http://www.w3.org/2000/svg">
<path d="M24.9997 61C1.99979 48 16.5 16.5 34.5 5.5C54.1 18.7 56.8323 37.8333 55.4989 46C50.4999 66 32.3328 64 24.9997 61Z" stroke="black" stroke-width="1.7"/>
<path d="M29 25L34.5 18.5L40.5 25L45.5 40L42 49.5L34.5 53L27 49.5L24 40L29 25Z" stroke="black"/>
<path d="M34.5 18.5V6" stroke="black"/>
<path d="M40.5 25.5L45.5 14.5" stroke="black"/>
<path d="M45.5 40C45.9 40 52 36 55 34" stroke="black"/>
<path d="M42 49.5L52.5 52.5" stroke="black"/>
<path d="M35 53L42.5 61.5" stroke="black"/>
<path d="M34.5 53L26.5 61" stroke="black"/>
<path d="M27.5 49.5L17 52.5" stroke="black"/>
<path d="M24 40L14.5 34.5152" stroke="black"/>
<path d="M29.0009 25L23.2265 15" stroke="black"/>
<path d="M28.5 40L31.5 27.5L30 39.5L31 47L28.5 40Z" fill="black"/>
</svg>
