<svg width="69" height="68" viewBox="0 0 69 68" fill="none" xmlns="http://www.w3.org/2000/svg">
<path d="M7.5 46V22.5L24 6H47L64 22.5V46L47 63H24L7.5 46Z" stroke="black" stroke-width="1.7"/>
<path d="M18 41.5614V27.1316L28.2212 17H42.469L53 27.1316V41.5614L42.469 52H28.2212L18 41.5614Z" stroke="black"/>
<path d="M24 6.5L28 17" stroke="black"/>
<path d="M47 6.5L42.722 17.0755" stroke="black"/>
<path d="M63.5 22.5L53.1199 27.0926" stroke="black"/>
<path d="M63.5703 45.2623L52.9991 41.1285" stroke="black"/>
<path d="M47 62.5L42.5 52" stroke="black"/>
<path d="M28.5 52L24.5 62.5" stroke="black"/>
<path d="M18 41.5L8 45.5" stroke="black"/>
<path d="M18 27.5L8 23" stroke="black"/>
<path d="M42 20H36L41.5 21.5L49 27.5L42 20Z" fill="black"/>
<path d="M29 48.5L22.5 41L29.5 47.5L41 48.5H29Z" fill="black"/>
</svg>
